<svg width="66" height="26" viewBox="0 0 66 26" fill="none" xmlns="http://www.w3.org/2000/svg">
<path d="M10.18 10.08C9.87067 9.42933 9.42267 8.928 8.836 8.576C8.24933 8.21333 7.56667 8.032 6.788 8.032C6.00933 8.032 5.30533 8.21333 4.676 8.576C4.05733 8.928 3.56667 9.44 3.204 10.112C2.852 10.7733 2.676 11.5413 2.676 12.416C2.676 13.2907 2.852 14.0587 3.204 14.72C3.56667 15.3813 4.05733 15.8933 4.676 16.256C5.30533 16.608 6.00933 16.784 6.788 16.784C7.876 16.784 8.772 16.4587 9.476 15.808C10.18 15.1573 10.5907 14.2773 10.708 13.168H6.26V11.984H12.26V13.104C12.1747 14.0213 11.8867 14.864 11.396 15.632C10.9053 16.3893 10.26 16.992 9.46 17.44C8.66 17.8773 7.76933 18.096 6.788 18.096C5.75333 18.096 4.80933 17.856 3.956 17.376C3.10267 16.8853 2.42533 16.208 1.924 15.344C1.43333 14.48 1.188 13.504 1.188 12.416C1.188 11.328 1.43333 10.352 1.924 9.488C2.42533 8.61333 3.10267 7.936 3.956 7.456C4.80933 6.96533 5.75333 6.72 6.788 6.72C7.972 6.72 9.01733 7.01333 9.924 7.6C10.8413 8.18667 11.508 9.01333 11.924 10.08H10.18ZM20.7771 15.52H15.9131L15.0171 18H13.4811L17.5131 6.912H19.1931L23.2091 18H21.6731L20.7771 15.52ZM20.3611 14.336L18.3451 8.704L16.3291 14.336H20.3611ZM26.4224 16.816H30.3264V18H24.9664V6.848H26.4224V16.816ZM33.3286 16.816H37.2326V18H31.8726V6.848H33.3286V16.816ZM40.2349 8.032V11.76H44.2989V12.96H40.2349V16.8H44.7789V18H38.7789V6.832H44.7789V8.032H40.2349ZM52.854 18L50.198 13.44H48.438V18H46.982V6.848H50.582C51.4247 6.848 52.134 6.992 52.71 7.28C53.2967 7.568 53.734 7.95733 54.022 8.448C54.31 8.93867 54.454 9.49867 54.454 10.128C54.454 10.896 54.23 11.5733 53.782 12.16C53.3447 12.7467 52.6833 13.136 51.798 13.328L54.598 18H52.854ZM48.438 12.272H50.582C51.3713 12.272 51.9633 12.08 52.358 11.696C52.7527 11.3013 52.95 10.7787 52.95 10.128C52.95 9.46667 52.7527 8.95467 52.358 8.592C51.974 8.22933 51.382 8.048 50.582 8.048H48.438V12.272ZM64.5244 6.848L60.8924 13.792V18H59.4364V13.792L55.7884 6.848H57.4044L60.1564 12.496L62.9084 6.848H64.5244Z" fill="black"/>
</svg>
