<svg width="47" height="26" viewBox="0 0 47 26" fill="none" xmlns="http://www.w3.org/2000/svg">
<path d="M10.324 6.848V18H8.868V12.944H3.188V18H1.732V6.848H3.188V11.744H8.868V6.848H10.324ZM17.8661 18.112C16.8315 18.112 15.8875 17.872 15.0341 17.392C14.1808 16.9013 13.5035 16.224 13.0021 15.36C12.5115 14.4853 12.2661 13.504 12.2661 12.416C12.2661 11.328 12.5115 10.352 13.0021 9.488C13.5035 8.61333 14.1808 7.936 15.0341 7.456C15.8875 6.96533 16.8315 6.72 17.8661 6.72C18.9115 6.72 19.8608 6.96533 20.7141 7.456C21.5675 7.936 22.2395 8.608 22.7301 9.472C23.2208 10.336 23.4661 11.3173 23.4661 12.416C23.4661 13.5147 23.2208 14.496 22.7301 15.36C22.2395 16.224 21.5675 16.9013 20.7141 17.392C19.8608 17.872 18.9115 18.112 17.8661 18.112ZM17.8661 16.848C18.6448 16.848 19.3435 16.6667 19.9621 16.304C20.5915 15.9413 21.0821 15.424 21.4341 14.752C21.7968 14.08 21.9781 13.3013 21.9781 12.416C21.9781 11.52 21.7968 10.7413 21.4341 10.08C21.0821 9.408 20.5968 8.89067 19.9781 8.528C19.3595 8.16533 18.6555 7.984 17.8661 7.984C17.0768 7.984 16.3728 8.16533 15.7541 8.528C15.1355 8.89067 14.6448 9.408 14.2821 10.08C13.9301 10.7413 13.7541 11.52 13.7541 12.416C13.7541 13.3013 13.9301 14.08 14.2821 14.752C14.6448 15.424 15.1355 15.9413 15.7541 16.304C16.3835 16.6667 17.0875 16.848 17.8661 16.848ZM36.7003 6.928V18H35.2443V9.744L31.5643 18H30.5403L26.8443 9.728V18H25.3883V6.928H26.9563L31.0523 16.08L35.1483 6.928H36.7003ZM40.6255 8.032V11.76H44.6895V12.96H40.6255V16.8H45.1695V18H39.1695V6.832H45.1695V8.032H40.6255Z" fill="black"/>
<line x1="0.5" y1="25.25" x2="24.5" y2="25.25" stroke="black" stroke-width="1.5"/>
</svg>
