<svg width="78" height="26" viewBox="0 0 78 26" fill="none" xmlns="http://www.w3.org/2000/svg">
<path d="M1.188 12.416C1.188 11.328 1.43333 10.352 1.924 9.488C2.41467 8.61333 3.08133 7.93067 3.924 7.44C4.77733 6.94933 5.72133 6.704 6.756 6.704C7.972 6.704 9.03333 6.99733 9.94 7.584C10.8467 8.17067 11.508 9.00267 11.924 10.08H10.18C9.87067 9.408 9.42267 8.89067 8.836 8.528C8.26 8.16533 7.56667 7.984 6.756 7.984C5.97733 7.984 5.27867 8.16533 4.66 8.528C4.04133 8.89067 3.556 9.408 3.204 10.08C2.852 10.7413 2.676 11.52 2.676 12.416C2.676 13.3013 2.852 14.08 3.204 14.752C3.556 15.4133 4.04133 15.9253 4.66 16.288C5.27867 16.6507 5.97733 16.832 6.756 16.832C7.56667 16.832 8.26 16.656 8.836 16.304C9.42267 15.9413 9.87067 15.424 10.18 14.752H11.924C11.508 15.8187 10.8467 16.6453 9.94 17.232C9.03333 17.808 7.972 18.096 6.756 18.096C5.72133 18.096 4.77733 17.856 3.924 17.376C3.08133 16.8853 2.41467 16.208 1.924 15.344C1.43333 14.48 1.188 13.504 1.188 12.416ZM19.1474 18.112C18.1127 18.112 17.1687 17.872 16.3154 17.392C15.462 16.9013 14.7847 16.224 14.2834 15.36C13.7927 14.4853 13.5474 13.504 13.5474 12.416C13.5474 11.328 13.7927 10.352 14.2834 9.488C14.7847 8.61333 15.462 7.936 16.3154 7.456C17.1687 6.96533 18.1127 6.72 19.1474 6.72C20.1927 6.72 21.142 6.96533 21.9954 7.456C22.8487 7.936 23.5207 8.608 24.0114 9.472C24.502 10.336 24.7474 11.3173 24.7474 12.416C24.7474 13.5147 24.502 14.496 24.0114 15.36C23.5207 16.224 22.8487 16.9013 21.9954 17.392C21.142 17.872 20.1927 18.112 19.1474 18.112ZM19.1474 16.848C19.926 16.848 20.6247 16.6667 21.2434 16.304C21.8727 15.9413 22.3634 15.424 22.7154 14.752C23.078 14.08 23.2594 13.3013 23.2594 12.416C23.2594 11.52 23.078 10.7413 22.7154 10.08C22.3634 9.408 21.878 8.89067 21.2594 8.528C20.6407 8.16533 19.9367 7.984 19.1474 7.984C18.358 7.984 17.654 8.16533 17.0354 8.528C16.4167 8.89067 15.926 9.408 15.5634 10.08C15.2114 10.7413 15.0354 11.52 15.0354 12.416C15.0354 13.3013 15.2114 14.08 15.5634 14.752C15.926 15.424 16.4167 15.9413 17.0354 16.304C17.6647 16.6667 18.3687 16.848 19.1474 16.848ZM35.4375 18H33.9815L28.1255 9.12V18H26.6695V6.832H28.1255L33.9815 15.696V6.832H35.4375V18ZM44.7835 6.848V8.032H41.7435V18H40.2875V8.032H37.2315V6.848H44.7835ZM53.1678 15.52H48.3038L47.4078 18H45.8717L49.9038 6.912H51.5838L55.5998 18H54.0638L53.1678 15.52ZM52.7518 14.336L50.7358 8.704L48.7198 14.336H52.7518ZM56.813 12.416C56.813 11.328 57.0583 10.352 57.549 9.488C58.0397 8.61333 58.7063 7.93067 59.549 7.44C60.4023 6.94933 61.3463 6.704 62.381 6.704C63.597 6.704 64.6583 6.99733 65.565 7.584C66.4717 8.17067 67.133 9.00267 67.549 10.08H65.805C65.4957 9.408 65.0477 8.89067 64.461 8.528C63.885 8.16533 63.1917 7.984 62.381 7.984C61.6023 7.984 60.9037 8.16533 60.285 8.528C59.6663 8.89067 59.181 9.408 58.829 10.08C58.477 10.7413 58.301 11.52 58.301 12.416C58.301 13.3013 58.477 14.08 58.829 14.752C59.181 15.4133 59.6663 15.9253 60.285 16.288C60.9037 16.6507 61.6023 16.832 62.381 16.832C63.1917 16.832 63.885 16.656 64.461 16.304C65.0477 15.9413 65.4957 15.424 65.805 14.752H67.549C67.133 15.8187 66.4717 16.6453 65.565 17.232C64.6583 17.808 63.597 18.096 62.381 18.096C61.3463 18.096 60.4023 17.856 59.549 17.376C58.7063 16.8853 58.0397 16.208 57.549 15.344C57.0583 14.48 56.813 13.504 56.813 12.416ZM76.5804 6.848V8.032H73.5404V18H72.0844V8.032H69.0284V6.848H76.5804Z" fill="black"/>
</svg>
