<svg width="66" height="26" viewBox="0 0 66 26" fill="none" xmlns="http://www.w3.org/2000/svg">
<path d="M3.188 8.032V11.76H7.252V12.96H3.188V16.8H7.732V18H1.732V6.832H7.732V8.032H3.188ZM14.4951 12.432L17.9191 18H16.2711L13.5991 13.648L11.0551 18H9.43913L12.8471 12.432L9.42313 6.848H11.0551L13.7431 11.216L16.3031 6.848H17.9351L14.4951 12.432ZM27.3286 10.112C27.3286 11.04 27.0086 11.8133 26.3686 12.432C25.7393 13.04 24.774 13.344 23.4726 13.344H21.3286V18H19.8726V6.848H23.4726C24.7313 6.848 25.686 7.152 26.3366 7.76C26.998 8.368 27.3286 9.152 27.3286 10.112ZM23.4726 12.144C24.2833 12.144 24.8806 11.968 25.2646 11.616C25.6486 11.264 25.8406 10.7627 25.8406 10.112C25.8406 8.736 25.0513 8.048 23.4726 8.048H21.3286V12.144H23.4726ZM30.5943 16.816H34.4983V18H29.1383V6.848H30.5943V16.816ZM41.1005 18.112C40.0658 18.112 39.1218 17.872 38.2685 17.392C37.4152 16.9013 36.7378 16.224 36.2365 15.36C35.7458 14.4853 35.5005 13.504 35.5005 12.416C35.5005 11.328 35.7458 10.352 36.2365 9.488C36.7378 8.61333 37.4152 7.936 38.2685 7.456C39.1218 6.96533 40.0658 6.72 41.1005 6.72C42.1458 6.72 43.0952 6.96533 43.9485 7.456C44.8018 7.936 45.4738 8.608 45.9645 9.472C46.4552 10.336 46.7005 11.3173 46.7005 12.416C46.7005 13.5147 46.4552 14.496 45.9645 15.36C45.4738 16.224 44.8018 16.9013 43.9485 17.392C43.0952 17.872 42.1458 18.112 41.1005 18.112ZM41.1005 16.848C41.8792 16.848 42.5778 16.6667 43.1965 16.304C43.8258 15.9413 44.3165 15.424 44.6685 14.752C45.0312 14.08 45.2125 13.3013 45.2125 12.416C45.2125 11.52 45.0312 10.7413 44.6685 10.08C44.3165 9.408 43.8312 8.89067 43.2125 8.528C42.5938 8.16533 41.8898 7.984 41.1005 7.984C40.3112 7.984 39.6072 8.16533 38.9885 8.528C38.3698 8.89067 37.8792 9.408 37.5165 10.08C37.1645 10.7413 36.9885 11.52 36.9885 12.416C36.9885 13.3013 37.1645 14.08 37.5165 14.752C37.8792 15.424 38.3698 15.9413 38.9885 16.304C39.6178 16.6667 40.3218 16.848 41.1005 16.848ZM54.4946 18L51.8386 13.44H50.0786V18H48.6226V6.848H52.2226C53.0653 6.848 53.7746 6.992 54.3506 7.28C54.9373 7.568 55.3746 7.95733 55.6626 8.448C55.9506 8.93867 56.0946 9.49867 56.0946 10.128C56.0946 10.896 55.8706 11.5733 55.4226 12.16C54.9853 12.7467 54.324 13.136 53.4386 13.328L56.2386 18H54.4946ZM50.0786 12.272H52.2226C53.012 12.272 53.604 12.08 53.9986 11.696C54.3933 11.3013 54.5906 10.7787 54.5906 10.128C54.5906 9.46667 54.3933 8.95467 53.9986 8.592C53.6146 8.22933 53.0226 8.048 52.2226 8.048H50.0786V12.272ZM59.813 8.032V11.76H63.877V12.96H59.813V16.8H64.357V18H58.357V6.832H64.357V8.032H59.813Z" fill="black"/>
</svg>
